# Blender 3.3.10
# www.blender.org
o HorPipe1
v 9.541297 32.115170 -108.890450
v 2.779823 30.303436 -108.890450
v 9.813895 30.044617 -108.890450
v 2.813895 30.044617 -108.890450
v 2.779823 29.785797 -108.890450
v 2.679923 30.544617 -108.890450
v 8.742095 34.044617 -108.890450
v 2.521003 30.751722 -108.890450
v 7.470748 35.701469 -108.890450
v 2.313895 30.910643 -108.890450
v 5.813895 36.972820 -108.890450
v 2.072715 31.010542 -108.890450
v 3.884444 37.772022 -108.890450
v 1.813895 31.044617 -108.890450
v 1.813895 38.044617 -108.890450
v -0.256661 37.772022 -108.890450
v 1.555076 31.010542 -108.890450
v -2.186105 36.972820 -108.890450
v 1.313895 30.910643 -108.890450
v -3.842957 35.701469 -108.890450
v 1.106788 30.751722 -108.890450
v -5.114312 34.044617 -108.890450
v 0.947868 30.544617 -108.890450
v -5.913514 32.115170 -108.890450
v 0.847968 30.303436 -108.890450
v 0.813895 30.044617 -108.890450
v -6.186105 30.044617 -108.890450
v 0.847968 29.785797 -108.890450
v -5.913514 27.974064 -108.890450
v 0.947868 29.544617 -108.890450
v -5.114312 26.044617 -108.890450
v 1.106788 29.337509 -108.890450
v -3.842957 24.387762 -108.890450
v 1.313895 29.178591 -108.890450
v -2.186105 23.116413 -108.890450
v 1.555076 29.078690 -108.890450
v -0.256661 22.317209 -108.890450
v 1.813895 29.044617 -108.890450
v 1.813895 22.044615 -108.890450
v 3.884444 22.317209 -108.890450
v 2.072715 29.078690 -108.890450
v 5.813895 23.116413 -108.890450
v 2.313895 29.178591 -108.890450
v 7.470748 24.387762 -108.890450
v 2.521003 29.337509 -108.890450
v 8.742095 26.044617 -108.890450
v 2.679923 29.544617 -108.890450
v 9.541297 27.974064 -108.890450
v 9.541297 32.115170 -112.890450
v 9.813895 30.044617 -112.890450
v 9.541297 27.974064 -112.890450
v 8.742095 26.044617 -112.890450
v 7.470748 24.387764 -112.890450
v 5.813895 23.116413 -112.890450
v 3.884444 22.317211 -112.890450
v 1.813895 22.044617 -112.890450
v -0.256661 22.317211 -112.890450
v -2.186105 23.116413 -112.890450
v -3.842957 24.387764 -112.890450
v -5.114312 26.044617 -112.890450
v -5.913514 27.974064 -112.890450
v -6.186105 30.044617 -112.890450
v -5.913514 32.115170 -112.890450
v -5.114312 34.044617 -112.890450
v -3.842957 35.701473 -112.890450
v -2.186105 36.972820 -112.890450
v -0.256661 37.772026 -112.890450
v 1.813895 38.044617 -112.890450
v 3.884444 37.772026 -112.890450
v 5.813895 36.972820 -112.890450
v 7.470748 35.701473 -112.890450
v 8.742095 34.044617 -112.890450
v 2.779823 30.303402 -8.890450
v 2.813895 30.044584 -8.890450
v 2.779823 29.785765 -8.890450
v 2.679923 29.544584 -8.890450
v 2.521003 29.337477 -8.890450
v 2.313895 29.178558 -8.890450
v 2.072715 29.078657 -8.890450
v 1.813895 29.044584 -8.890450
v 1.555076 29.078657 -8.890450
v 1.313895 29.178558 -8.890450
v 1.106788 29.337477 -8.890450
v 0.947868 29.544584 -8.890450
v 0.847968 29.785765 -8.890450
v 0.813895 30.044584 -8.890450
v 0.847968 30.303402 -8.890450
v 0.947868 30.544584 -8.890450
v 1.106788 30.751690 -8.890450
v 1.313895 30.910608 -8.890450
v 1.555076 31.010509 -8.890450
v 1.813895 31.044584 -8.890450
v 2.072715 31.010509 -8.890450
v 2.313895 30.910608 -8.890450
v 2.521003 30.751690 -8.890450
v 2.679923 30.544584 -8.890450
v 2.683227 29.811647 -8.990440
v 0.944564 29.811647 -8.990440
v 2.713897 30.044584 -8.990440
v 0.913894 30.044584 -8.990440
v 2.683227 30.277521 -8.990440
v 0.944564 30.277521 -8.990440
v 2.593314 30.494583 -8.990440
v 1.034469 30.494583 -8.990440
v 2.450294 30.680979 -8.990440
v 1.177497 30.680979 -8.990440
v 2.263892 30.824007 -8.990440
v 1.363891 30.824007 -8.990440
v 2.046829 30.913918 -8.990440
v 1.580955 30.913918 -8.990440
v 1.813895 30.944584 -8.990440
v 1.034469 29.594584 -8.990440
v 2.593314 29.594584 -8.990440
v 1.177497 29.408188 -8.990440
v 2.450294 29.408188 -8.990440
v 1.363891 29.265162 -8.990440
v 2.263892 29.265162 -8.990440
v 1.580955 29.175251 -8.990440
v 2.046829 29.175251 -8.990440
v 1.813895 29.144585 -8.990440
v 2.683227 29.811680 -108.890450
v 2.713897 30.044617 -108.890450
v 2.683227 30.277554 -108.890450
v 2.593314 30.494616 -108.890450
v 2.450294 30.681013 -108.890450
v 2.263892 30.824039 -108.890450
v 2.046829 30.913950 -108.890450
v 1.813895 30.944616 -108.890450
v 1.580955 30.913950 -108.890450
v 1.363891 30.824039 -108.890450
v 1.177497 30.681013 -108.890450
v 1.034469 30.494616 -108.890450
v 0.944564 30.277554 -108.890450
v 0.913894 30.044617 -108.890450
v 0.944564 29.811680 -108.890450
v 1.034469 29.594616 -108.890450
v 1.177497 29.408220 -108.890450
v 1.363891 29.265194 -108.890450
v 1.580955 29.175283 -108.890450
v 1.813895 29.144617 -108.890450
v 2.046829 29.175283 -108.890450
v 2.263892 29.265194 -108.890450
v 2.450294 29.408220 -108.890450
v 2.593314 29.594616 -108.890450
vn -0.0000 -0.0000 1.0000
vn 0.9914 0.1305 -0.0000
vn 0.9914 -0.1305 -0.0000
vn 0.9239 -0.3827 -0.0000
vn 0.7934 -0.6088 -0.0000
vn 0.6088 -0.7934 -0.0000
vn 0.3827 -0.9239 -0.0000
vn 0.1305 -0.9914 -0.0000
vn -0.1305 -0.9914 -0.0000
vn -0.3827 -0.9239 -0.0000
vn -0.6088 -0.7934 -0.0000
vn -0.7934 -0.6088 -0.0000
vn -0.9239 -0.3827 -0.0000
vn -0.9914 -0.1305 -0.0000
vn -0.9914 0.1305 -0.0000
vn -0.9239 0.3827 -0.0000
vn -0.7934 0.6088 -0.0000
vn -0.6088 0.7934 -0.0000
vn -0.3827 0.9239 -0.0000
vn -0.1305 0.9914 -0.0000
vn 0.1305 0.9914 -0.0000
vn 0.3827 0.9239 -0.0000
vn 0.6088 0.7934 -0.0000
vn 0.7934 0.6088 -0.0000
vn 0.9239 0.3827 -0.0000
vn -0.0000 -0.0000 -1.0000
vn -0.7934 -0.6087 -0.0000
vn 0.6088 -0.7933 -0.0000
vn -0.6087 0.7934 -0.0000
vn -0.7934 0.6087 -0.0000
s 0
f 1//1 2//1 3//1
f 3//1 2//1 4//1
f 3//1 4//1 5//1
f 2//1 1//1 6//1
f 6//1 1//1 7//1
f 6//1 7//1 8//1
f 8//1 7//1 9//1
f 8//1 9//1 10//1
f 10//1 9//1 11//1
f 10//1 11//1 12//1
f 12//1 11//1 13//1
f 12//1 13//1 14//1
f 14//1 13//1 15//1
f 14//1 15//1 16//1
f 14//1 16//1 17//1
f 17//1 16//1 18//1
f 17//1 18//1 19//1
f 19//1 18//1 20//1
f 19//1 20//1 21//1
f 21//1 20//1 22//1
f 21//1 22//1 23//1
f 23//1 22//1 24//1
f 23//1 24//1 25//1
f 25//1 24//1 26//1
f 26//1 24//1 27//1
f 26//1 27//1 28//1
f 28//1 27//1 29//1
f 28//1 29//1 30//1
f 30//1 29//1 31//1
f 30//1 31//1 32//1
f 32//1 31//1 33//1
f 32//1 33//1 34//1
f 34//1 33//1 35//1
f 34//1 35//1 36//1
f 36//1 35//1 37//1
f 36//1 37//1 38//1
f 38//1 37//1 39//1
f 38//1 39//1 40//1
f 38//1 40//1 41//1
f 41//1 40//1 42//1
f 41//1 42//1 43//1
f 43//1 42//1 44//1
f 43//1 44//1 45//1
f 45//1 44//1 46//1
f 45//1 46//1 47//1
f 47//1 46//1 48//1
f 47//1 48//1 5//1
f 5//1 48//1 3//1
f 49//2 1//2 50//2
f 50//2 1//2 3//2
f 50//3 3//3 51//3
f 51//3 3//3 48//3
f 51//4 48//4 52//4
f 52//4 48//4 46//4
f 52//5 46//5 53//5
f 53//5 46//5 44//5
f 53//6 44//6 54//6
f 54//6 44//6 42//6
f 54//7 42//7 55//7
f 55//7 42//7 40//7
f 55//8 40//8 56//8
f 56//8 40//8 39//8
f 56//9 39//9 57//9
f 57//9 39//9 37//9
f 57//10 37//10 58//10
f 58//10 37//10 35//10
f 58//11 35//11 59//11
f 59//11 35//11 33//11
f 59//12 33//12 60//12
f 60//12 33//12 31//12
f 60//13 31//13 61//13
f 61//13 31//13 29//13
f 61//14 29//14 62//14
f 62//14 29//14 27//14
f 62//15 27//15 63//15
f 63//15 27//15 24//15
f 63//16 24//16 64//16
f 64//16 24//16 22//16
f 64//17 22//17 65//17
f 65//17 22//17 20//17
f 65//18 20//18 66//18
f 66//18 20//18 18//18
f 66//19 18//19 67//19
f 67//19 18//19 16//19
f 67//20 16//20 68//20
f 68//20 16//20 15//20
f 68//21 15//21 69//21
f 69//21 15//21 13//21
f 69//22 13//22 70//22
f 70//22 13//22 11//22
f 70//23 11//23 71//23
f 71//23 11//23 9//23
f 71//24 9//24 72//24
f 72//24 9//24 7//24
f 72//25 7//25 49//25
f 49//25 7//25 1//25
f 51//26 61//26 50//26
f 50//26 61//26 62//26
f 50//26 62//26 49//26
f 49//26 62//26 63//26
f 49//26 63//26 72//26
f 72//26 63//26 64//26
f 72//26 64//26 71//26
f 71//26 64//26 65//26
f 71//26 65//26 70//26
f 70//26 65//26 66//26
f 70//26 66//26 69//26
f 69//26 66//26 67//26
f 69//26 67//26 68//26
f 61//26 51//26 60//26
f 60//26 51//26 52//26
f 60//26 52//26 59//26
f 59//26 52//26 53//26
f 59//26 53//26 58//26
f 58//26 53//26 54//26
f 58//26 54//26 57//26
f 57//26 54//26 55//26
f 57//26 55//26 56//26
f 2//2 73//2 4//2
f 4//2 73//2 74//2
f 4//3 74//3 5//3
f 5//3 74//3 75//3
f 5//4 75//4 47//4
f 47//4 75//4 76//4
f 47//5 76//5 45//5
f 45//5 76//5 77//5
f 45//6 77//6 43//6
f 43//6 77//6 78//6
f 43//7 78//7 41//7
f 41//7 78//7 79//7
f 41//8 79//8 38//8
f 38//8 79//8 80//8
f 38//9 80//9 36//9
f 36//9 80//9 81//9
f 36//10 81//10 34//10
f 34//10 81//10 82//10
f 34//11 82//11 32//11
f 32//11 82//11 83//11
f 32//12 83//12 30//12
f 30//12 83//12 84//12
f 30//13 84//13 28//13
f 28//13 84//13 85//13
f 28//14 85//14 26//14
f 26//14 85//14 86//14
f 26//15 86//15 25//15
f 25//15 86//15 87//15
f 25//16 87//16 23//16
f 23//16 87//16 88//16
f 23//17 88//17 21//17
f 21//17 88//17 89//17
f 21//18 89//18 19//18
f 19//18 89//18 90//18
f 19//19 90//19 17//19
f 17//19 90//19 91//19
f 17//20 91//20 14//20
f 14//20 91//20 92//20
f 14//21 92//21 12//21
f 12//21 92//21 93//21
f 12//22 93//22 10//22
f 10//22 93//22 94//22
f 10//23 94//23 8//23
f 8//23 94//23 95//23
f 8//24 95//24 6//24
f 6//24 95//24 96//24
f 6//25 96//25 2//25
f 2//25 96//25 73//25
f 73//1 87//1 74//1
f 74//1 87//1 86//1
f 74//1 86//1 75//1
f 75//1 86//1 85//1
f 75//1 85//1 76//1
f 76//1 85//1 84//1
f 76//1 84//1 77//1
f 77//1 84//1 83//1
f 77//1 83//1 78//1
f 78//1 83//1 82//1
f 78//1 82//1 79//1
f 79//1 82//1 81//1
f 79//1 81//1 80//1
f 87//1 73//1 88//1
f 88//1 73//1 96//1
f 88//1 96//1 89//1
f 89//1 96//1 95//1
f 89//1 95//1 90//1
f 90//1 95//1 94//1
f 90//1 94//1 91//1
f 91//1 94//1 93//1
f 91//1 93//1 92//1
f 97//26 98//26 99//26
f 99//26 98//26 100//26
f 99//26 100//26 101//26
f 101//26 100//26 102//26
f 101//26 102//26 103//26
f 103//26 102//26 104//26
f 103//26 104//26 105//26
f 105//26 104//26 106//26
f 105//26 106//26 107//26
f 107//26 106//26 108//26
f 107//26 108//26 109//26
f 109//26 108//26 110//26
f 109//26 110//26 111//26
f 98//26 97//26 112//26
f 112//26 97//26 113//26
f 112//26 113//26 114//26
f 114//26 113//26 115//26
f 114//26 115//26 116//26
f 116//26 115//26 117//26
f 116//26 117//26 118//26
f 118//26 117//26 119//26
f 118//26 119//26 120//26
f 121//15 97//15 122//15
f 122//15 97//15 99//15
f 122//14 99//14 123//14
f 123//14 99//14 101//14
f 123//13 101//13 124//13
f 124//13 101//13 103//13
f 124//27 103//27 125//27
f 125//27 103//27 105//27
f 125//11 105//11 126//11
f 126//11 105//11 107//11
f 126//10 107//10 127//10
f 127//10 107//10 109//10
f 127//9 109//9 128//9
f 128//9 109//9 111//9
f 128//8 111//8 129//8
f 129//8 111//8 110//8
f 129//7 110//7 130//7
f 130//7 110//7 108//7
f 130//28 108//28 131//28
f 131//28 108//28 106//28
f 131//5 106//5 132//5
f 132//5 106//5 104//5
f 132//4 104//4 133//4
f 133//4 104//4 102//4
f 133//3 102//3 134//3
f 134//3 102//3 100//3
f 134//2 100//2 135//2
f 135//2 100//2 98//2
f 135//25 98//25 136//25
f 136//25 98//25 112//25
f 136//24 112//24 137//24
f 137//24 112//24 114//24
f 137//23 114//23 138//23
f 138//23 114//23 116//23
f 138//22 116//22 139//22
f 139//22 116//22 118//22
f 139//21 118//21 140//21
f 140//21 118//21 120//21
f 140//20 120//20 141//20
f 141//20 120//20 119//20
f 141//19 119//19 142//19
f 142//19 119//19 117//19
f 142//29 117//29 143//29
f 143//29 117//29 115//29
f 143//30 115//30 144//30
f 144//30 115//30 113//30
f 144//16 113//16 121//16
f 121//16 113//16 97//16
f 123//1 133//1 122//1
f 122//1 133//1 134//1
f 122//1 134//1 121//1
f 121//1 134//1 135//1
f 121//1 135//1 144//1
f 144//1 135//1 136//1
f 144//1 136//1 143//1
f 143//1 136//1 137//1
f 143//1 137//1 142//1
f 142//1 137//1 138//1
f 142//1 138//1 141//1
f 141//1 138//1 139//1
f 141//1 139//1 140//1
f 133//1 123//1 132//1
f 132//1 123//1 124//1
f 132//1 124//1 131//1
f 131//1 124//1 125//1
f 131//1 125//1 130//1
f 130//1 125//1 126//1
f 130//1 126//1 129//1
f 129//1 126//1 127//1
f 129//1 127//1 128//1
