# Blender 3.3.10
# www.blender.org
o box
v -2.781693 100.325157 -33.536007
v -52.781700 100.325157 -33.536007
v -2.781693 100.325142 -8.536007
v -52.781700 100.325142 -8.536007
v -2.781693 35.325157 -33.536049
v -2.781693 35.325142 -8.536049
v -52.781700 35.325157 -33.536049
v -52.781700 35.325142 -8.536049
vn -0.0000 1.0000 -0.0000
vn 1.0000 -0.0000 -0.0000
vn -0.0000 -1.0000 -0.0000
vn -1.0000 -0.0000 -0.0000
vn -0.0000 -0.0000 -1.0000
vn -0.0000 -0.0000 1.0000
s 0
f 1//1 2//1 3//1
f 3//1 2//1 4//1
f 5//2 1//2 6//2
f 6//2 1//2 3//2
f 7//3 5//3 8//3
f 8//3 5//3 6//3
f 2//4 7//4 4//4
f 4//4 7//4 8//4
f 2//5 1//5 7//5
f 7//5 1//5 5//5
f 8//6 6//6 4//6
f 4//6 6//6 3//6
