# Blender 3.3.11
# www.blender.org
o full
v 0.074068 0.144065 -0.019266
v -0.066590 0.144065 0.004394
v 0.074129 0.553283 -0.009684
v 0.072017 0.553283 -0.030899
v 0.068796 0.144065 -0.039925
v 0.059034 0.144065 -0.056804
v -0.010176 0.144065 0.057853
v 0.072954 0.144065 0.000166
v 0.069193 0.553283 0.014632
v 0.067724 0.144065 0.017171
v 0.014714 0.144065 0.057641
v 0.004634 0.553283 0.058756
v 0.030147 0.553283 0.053517
v 0.031706 0.144065 0.052539
v 0.052537 0.144065 0.039060
v 0.052812 0.553283 0.038515
v -0.022823 0.553283 0.054295
v -0.046679 0.553283 0.038882
v -0.031676 0.144065 0.049646
v -0.066312 0.553283 0.005487
v -0.068369 0.553283 -0.012262
v 0.052383 0.553283 -0.064295
v -0.059123 0.144065 0.022494
v -0.058620 0.553283 0.023366
v -0.047486 0.553283 -0.063508
v 0.028528 0.553283 -0.079708
v 0.044929 0.144065 -0.070317
v 0.024510 0.144065 -0.080981
v -0.004301 0.553283 -0.084194
v -0.029705 0.553283 -0.076212
v -0.017675 0.144065 -0.080961
v -0.038563 0.144065 -0.071300
v -0.000156 0.144065 -0.084065
v -0.056842 0.144065 -0.051919
v -0.066312 0.144065 -0.030900
v -0.068369 0.144065 -0.013151
v -0.066590 0.553283 -0.029807
v -0.059123 0.553283 -0.047907
v -0.047486 0.144065 0.038095
v 0.064324 0.553283 -0.048779
vn -0.0000 -1.0000 -0.0000
vn 0.9984 -0.0015 0.0572
vn 0.9951 0.0022 -0.0991
vn 0.9689 -0.0022 -0.2473
vn 0.9800 0.0020 0.1989
vn 0.9558 -0.0016 0.2940
vn 0.0085 -0.0025 1.0000
vn 0.2011 0.0023 0.9796
vn 0.2876 -0.0012 0.9578
vn 0.5433 0.0001 0.8396
vn 0.8247 0.0002 0.5656
vn 0.5519 0.0007 0.8339
vn 0.8216 0.0006 0.5700
vn -0.0000 1.0000 -0.0000
vn -0.5427 0.0022 0.8399
vn -0.3566 -0.0029 0.9342
vn -0.1604 0.0036 0.9871
vn -0.9934 0.0004 0.1151
vn -0.9244 -0.0004 0.3814
vn -0.9186 0.0003 0.3952
vn 0.5427 0.0025 -0.8399
vn 0.4629 -0.0018 -0.8864
vn 0.1354 0.0018 -0.9908
vn -0.2998 0.0023 -0.9540
vn -0.4198 -0.0018 -0.9076
vn -0.5813 0.0028 -0.8137
vn -0.7275 -0.0028 -0.6861
vn -0.9934 -0.0004 -0.1151
vn -0.9949 0.0002 -0.1009
vn -0.9949 -0.0002 0.1009
vn -0.9244 0.0004 -0.3814
vn -0.8016 0.0014 -0.5979
vn -0.9117 -0.0011 -0.4108
vn -0.1745 -0.0021 -0.9847
vn 0.1241 0.0009 -0.9923
vn 0.6918 -0.0020 -0.7221
vn -0.8016 -0.0003 0.5979
vn -0.7925 0.0004 0.6099
vn -0.5899 -0.0004 0.8075
vn 0.7925 0.0017 -0.6099
vn 0.9186 0.0015 -0.3952
vn 0.8656 -0.0014 -0.5006
s 0
f 2//1 6//1 1//1
f 2//1 1//1 7//1
f 8//2 1//2 3//2
f 3//3 1//3 4//3
f 1//4 5//4 4//4
f 1//1 6//1 5//1
f 7//1 1//1 8//1
f 9//5 8//5 3//5
f 10//6 8//6 9//6
f 11//1 8//1 10//1
f 7//1 8//1 11//1
f 7//7 11//7 12//7
f 12//8 11//8 13//8
f 11//9 14//9 13//9
f 11//1 15//1 14//1
f 11//1 10//1 15//1
f 14//10 15//10 13//10
f 16//11 15//11 9//11
f 13//12 15//12 16//12
f 15//13 10//13 9//13
f 9//14 13//14 16//14
f 3//14 17//14 13//14
f 13//14 17//14 12//14
f 3//14 13//14 9//14
f 20//14 18//14 17//14
f 18//15 19//15 17//15
f 19//16 7//16 17//16
f 17//17 7//17 12//17
f 3//14 20//14 17//14
f 25//14 21//14 20//14
f 21//18 2//18 20//18
f 2//19 23//19 20//19
f 22//14 26//14 20//14
f 22//14 20//14 3//14
f 20//20 23//20 24//20
f 20//14 24//14 18//14
f 26//14 25//14 20//14
f 22//21 27//21 26//21
f 27//22 28//22 26//22
f 26//23 28//23 29//23
f 26//14 29//14 30//14
f 26//14 30//14 25//14
f 29//24 31//24 30//24
f 31//25 32//25 30//25
f 30//26 32//26 25//26
f 33//1 28//1 32//1
f 31//1 33//1 32//1
f 32//27 34//27 25//27
f 34//1 32//1 35//1
f 35//1 32//1 36//1
f 36//1 32//1 2//1
f 32//1 28//1 2//1
f 35//28 36//28 37//28
f 37//29 36//29 21//29
f 36//30 2//30 21//30
f 38//31 35//31 37//31
f 25//14 37//14 21//14
f 25//14 38//14 37//14
f 25//32 34//32 38//32
f 34//33 35//33 38//33
f 33//34 31//34 29//34
f 28//35 33//35 29//35
f 27//1 6//1 28//1
f 28//1 6//1 2//1
f 6//36 27//36 22//36
f 23//37 39//37 24//37
f 24//38 39//38 18//38
f 39//39 19//39 18//39
f 39//1 2//1 19//1
f 23//1 2//1 39//1
f 22//14 4//14 40//14
f 22//14 3//14 4//14
f 40//40 6//40 22//40
f 4//41 5//41 40//41
f 5//42 6//42 40//42
f 2//1 7//1 19//1
